<svg width="767" height="469" viewBox="0 0 767 469" fill="none" xmlns="http://www.w3.org/2000/svg">
<path d="M62.2155 356.983V468.111H59.212H72.5131" stroke="#111111" stroke-width="1.7913"/>
<path d="M109.413 356.983V468.111H106.409H119.711" stroke="#111111" stroke-width="1.7913"/>
<path d="M257.011 245.427V468.113H254.008H267.309" stroke="#111111" stroke-width="1.7913"/>
<path d="M461.248 245.427V468.113H458.244H471.545" stroke="#111111" stroke-width="1.7913"/>
<path d="M607.988 245.427V468.113H604.985H618.286" stroke="#111111" stroke-width="1.7913"/>
<path d="M304.209 245.427V468.113H301.205H314.506" stroke="#111111" stroke-width="1.7913"/>
<path d="M508.445 245.427V468.113H505.442H518.743" stroke="#111111" stroke-width="1.7913"/>
<path d="M655.186 245.427V468.113H652.182H665.483" stroke="#111111" stroke-width="1.7913"/>
<path d="M627.915 143.269C630.287 137.185 638.895 137.185 641.267 143.269L642.82 147.254C644.873 152.518 651.926 153.447 655.271 148.893L657.803 145.446C661.668 140.184 669.983 142.412 670.7 148.902L671.169 153.153C671.789 158.769 678.362 161.492 682.771 157.959L686.109 155.284C691.205 151.202 698.66 155.506 697.672 161.96L697.025 166.188C696.17 171.773 701.814 176.104 706.988 173.833L710.904 172.114C716.883 169.489 722.97 175.576 720.345 181.555L718.626 185.471C716.355 190.645 720.686 196.289 726.271 195.434L730.499 194.787C736.953 193.799 741.257 201.254 737.175 206.35L734.5 209.688C730.967 214.098 733.69 220.67 739.306 221.29L743.558 221.759C750.048 222.476 752.276 230.791 747.013 234.656L743.566 237.188C739.012 240.533 739.941 247.587 745.205 249.639L749.19 251.193C755.274 253.564 755.274 262.173 749.19 264.544L745.205 266.098C739.941 268.15 739.012 275.204 743.566 278.548L747.013 281.08C752.276 284.946 750.048 293.261 743.558 293.977L739.306 294.446C733.69 295.066 730.967 301.639 734.5 306.049L737.175 309.387C741.257 314.482 736.953 321.937 730.499 320.949L726.271 320.302C720.686 319.447 716.355 325.092 718.626 330.265L720.345 334.182C722.97 340.161 716.883 346.248 710.904 343.623L706.988 341.903C701.814 339.632 696.17 343.963 697.025 349.548L697.672 353.776C698.66 360.231 691.205 364.535 686.109 360.452L682.771 357.778C678.362 354.245 671.789 356.967 671.169 362.584L670.7 366.835C669.983 373.325 661.668 375.553 657.803 370.291L655.271 366.843C651.926 362.29 644.873 363.218 642.82 368.483L641.267 372.468C638.895 378.551 630.287 378.551 627.915 372.468L626.361 368.483C624.309 363.218 617.256 362.29 613.911 366.843L611.379 370.291C607.513 375.553 599.198 373.325 598.482 366.835L598.013 362.584C597.393 356.967 590.82 354.245 586.411 357.778L583.073 360.452C577.977 364.535 570.522 360.231 571.51 353.776L572.157 349.548C573.012 343.963 567.367 339.632 562.194 341.903L558.277 343.623C552.299 346.248 546.212 340.161 548.836 334.182L550.556 330.265C552.827 325.092 548.496 319.447 542.911 320.302L538.683 320.949C532.228 321.937 527.924 314.482 532.007 309.387L534.681 306.049C538.214 301.639 535.492 295.066 529.876 294.446L525.624 293.977C519.134 293.261 516.906 284.946 522.169 281.08L525.616 278.548C530.17 275.204 529.241 268.15 523.977 266.098L519.991 264.544C513.908 262.173 513.908 253.564 519.991 251.193L523.977 249.639C529.241 247.587 530.17 240.533 525.616 237.188L522.169 234.656C516.906 230.791 519.134 222.476 525.624 221.759L529.876 221.29C535.492 220.67 538.214 214.098 534.681 209.688L532.007 206.35C527.924 201.254 532.228 193.799 538.683 194.787L542.911 195.434C548.496 196.289 552.827 190.645 550.556 185.471L548.836 181.555C546.212 175.576 552.299 169.489 558.277 172.114L562.194 173.833C567.368 176.104 573.012 171.773 572.157 166.188L571.51 161.96C570.522 155.506 577.977 151.202 583.073 155.284L586.411 157.959C590.82 161.492 597.393 158.769 598.013 153.153L598.482 148.902C599.198 142.412 607.513 140.184 611.379 145.446L613.911 148.893C617.256 153.447 624.309 152.518 626.361 147.254L627.915 143.269Z" fill="#BDB1FE"/>
<path d="M488.278 169.909L598.12 279.75L488.278 389.592L378.437 279.75L488.278 169.909Z" fill="#4D7BF3"/>
<path d="M284.043 0L308.694 127.068L409.256 45.5737L346.461 158.759L475.88 160.971L355.023 207.312L452.742 292.195L330.372 250.009L350.667 377.846L284.043 266.871L217.419 377.846L237.714 250.009L115.344 292.195L213.063 207.312L92.2057 160.971L221.624 158.759L158.83 45.5737L259.392 127.068L284.043 0Z" fill="#FF642B"/>
<circle cx="89.246" cy="300.345" r="89.246" fill="#C2D6BD"/>
<rect x="63.5017" y="272.887" width="3.5826" height="3.43254" rx="1.71627" fill="#111111"/>
<rect x="111.407" y="272.887" width="3.5826" height="3.43254" rx="1.71627" fill="#111111"/>
<rect x="609.276" y="214.53" width="3.5826" height="3.43254" rx="1.71627" fill="#111111"/>
<rect x="657.181" y="214.53" width="3.5826" height="3.43254" rx="1.71627" fill="#111111"/>
<rect x="258.299" y="166.476" width="3.5826" height="6.86508" rx="1.7913" fill="#111111"/>
<rect x="306.204" y="166.476" width="3.5826" height="6.86508" rx="1.7913" fill="#111111"/>
<rect x="462.535" y="241.994" width="3.5826" height="6.86508" rx="1.7913" fill="#111111"/>
<rect x="510.44" y="241.994" width="3.5826" height="6.86508" rx="1.7913" fill="#111111"/>
</svg>
