<svg width="137" height="112" viewBox="0 0 137 112" fill="none" xmlns="http://www.w3.org/2000/svg">
<path fill-rule="evenodd" clip-rule="evenodd" d="M40.5707 0.371901C35.6345 1.70695 31.9134 5.48464 30.6262 10.4677C30.1858 12.1719 30.1824 15.8551 30.6197 17.5797C31.4213 20.7415 34.1518 24.7229 37.3519 27.3957L38.4978 28.353L37.109 29.3748C34.662 31.1754 30.0904 35.9635 28.3252 38.5744C26.3735 41.4611 24.2368 45.4166 23.0197 48.3958C22.1648 50.4886 20.013 56.855 19.3512 59.2495C19.0663 60.2804 18.8442 60.5252 16.1786 62.7474C12.7752 65.5845 8.13942 70.1407 6.37052 72.3867C3.42797 76.1236 1.67926 79.4992 0.609004 83.5088C-0.170617 86.4289 -0.205671 90.5491 0.526693 93.1563C1.5264 96.7158 3.82377 100.073 7.03987 102.675C12.0897 106.761 20.6435 109.974 29.2863 111.031C30.5066 111.18 33.5516 111.307 36.0531 111.312C42.5659 111.326 47.2789 110.803 55.9097 109.106C64.3258 107.452 68.9403 106.217 69.9812 105.342C71.2621 104.265 71.099 102.974 69.3596 100.414C66.9025 96.7985 64.1388 94.0637 61.6981 92.8326C59.0792 91.5115 56.9081 92.1165 56.9081 94.1674C56.9081 95.4714 57.2764 96.041 60.1637 99.2017L62.7479 102.031L61.4365 102.435C58.3823 103.378 50.6531 104.808 48.6131 104.808H47.6367L47.755 102.074C48.0205 95.9277 46.393 90.8103 42.5499 85.7086C38.6092 80.4771 32.2495 76.0443 24.5163 73.1383C22.3734 72.3331 18.574 71.3211 16.4184 70.9814L15.5309 70.8415L17.5259 68.956C18.623 67.9189 20.4496 66.3728 21.5849 65.5202C22.7201 64.6673 23.7897 63.755 23.9619 63.4925C24.1338 63.2303 24.673 61.5696 25.1597 59.8022C27.2852 52.0859 29.9191 46.1223 33.3003 41.3709C35.12 38.8139 38.8588 35.1149 41.3778 33.3794C43.5123 31.9092 44.9276 31.0885 44.9276 31.3212C44.9276 31.3915 44.5355 32.8656 44.0563 34.597C43.5773 36.3284 43.0575 38.3437 42.9013 39.0752C42.5241 40.8406 42.5222 45.8844 42.8978 47.1467C43.2984 48.4926 44.2298 49.3841 45.2355 49.3841C46.9257 49.3841 48.3498 47.1798 50.2596 41.6079C52.8915 33.9293 55.8372 28.5565 57.6846 28.0645C58.6255 27.814 62.8983 27.5595 62.8983 27.7539C62.8983 27.8426 62.1626 29.1293 61.2634 30.6131C58.2293 35.6199 56.8409 39.0101 56.1178 43.1766C55.0511 49.3247 57.4328 51.9079 60.9644 48.4332C62.4273 46.994 64.0254 44.7147 66.6709 40.2946C67.8021 38.4046 69.3079 36.0103 70.0172 34.9739C72.4716 31.3873 75.6221 28.4223 76.7414 28.6456C78.5892 29.0138 78.4776 28.9223 78.319 29.939C77.8824 32.7363 76.589 36.2276 74.1616 41.1596C72.349 44.8431 72.1333 45.9826 73.1013 46.7661C74.2882 47.7267 77.1917 46.8944 79.8037 44.8451C81.4029 43.5905 83.5873 41.0328 84.8085 38.9855C85.9905 37.0035 87.6725 33.1026 88.1632 31.2051C88.3682 30.4125 89.0953 28.7664 89.7788 27.5471C90.4624 26.3278 91.7929 23.9335 92.7358 22.2264C96.1675 16.0123 98.1221 13.4096 100.074 12.4554C101.125 11.9415 101.485 11.8746 102.632 11.9785C105.403 12.2295 108.494 14.5511 109.488 17.1274C110.113 18.7469 110.288 20.7408 109.948 22.3741C109.224 25.8615 105.064 30.1897 96.9762 35.8731C94.7567 37.4325 94.2675 37.8832 93.9052 38.7015C93.3421 39.9733 93.5205 40.9599 94.4554 41.746C95.4893 42.6153 96.9019 42.449 98.9179 41.2208C99.7541 40.7114 100.468 40.2946 100.505 40.2946C100.652 40.2946 102.891 43.9244 103.201 44.666L103.532 45.4594L102.018 46.9871C99.4708 49.5568 97.1679 50.9597 91.9142 53.142C86.9616 55.1994 88.1941 58.6953 93.8722 58.6953C97.1045 58.6953 101.304 57.8367 104.572 56.508L106.124 55.8769L106.246 56.5655C106.312 56.9443 106.434 58.3565 106.515 59.7035L106.662 62.1528L104.471 64.3598C100.763 68.0932 97.6775 70.1897 92.2916 72.6361C87.8792 74.6405 84.3638 76.3546 83.97 76.6938C82.6504 77.8307 82.3218 79.0658 83.0819 80.0312C83.9053 81.0772 87.1229 81.4873 91.4202 81.0945C97.5923 80.5301 101.835 79.252 105.998 76.7034C106.702 76.2726 107.309 75.9605 107.347 76.0095C107.386 76.0582 107.771 77.6895 108.203 79.6342L108.989 83.17L108.074 84.6984C106.759 86.8962 104.718 89.3693 102.096 91.9427C98.1221 95.8423 95.0147 97.8318 90.3492 99.4628C87.903 100.318 86.1206 101.185 85.5406 101.802C84.3956 103.02 84.9839 104.804 86.6827 105.266C89.6723 106.08 99.3921 103.865 105.163 101.055C108.788 99.2895 111.334 97.4844 114.054 94.7514C115.405 93.3933 116.779 91.8225 117.107 91.261L117.703 90.2396L119.309 90.1142C123.135 89.8149 130.159 87.84 133.654 86.0811C136.631 84.5824 137 83.9976 137 80.7788C137 78.8283 136.383 75.044 135.575 72.0385C134.92 69.6022 134.028 68.9848 131.463 69.1903C129.872 69.3178 122.933 70.9776 117.929 72.4282C116.652 72.798 115.536 73.027 115.448 72.9368C115.36 72.8468 115.219 72.1566 115.135 71.4031L114.982 70.0332L115.952 69.7809C120.528 68.5902 127.683 65.7425 131.217 63.7054C133.248 62.5342 133.674 61.8567 133.667 59.8073C133.656 56.3311 130.97 48.2169 129.517 47.2649C128.467 46.5781 127.481 46.9306 119.939 50.6885C115.986 52.6583 112.72 54.2379 112.681 54.1989C112.641 54.1598 112.544 53.5743 112.465 52.8982L112.32 51.6684L114.621 50.2977C118.837 47.7861 126.635 41.8637 127.258 40.7007C127.958 39.394 127.084 37.1319 123.723 31.5509C121.217 27.3892 120.505 27.0305 118.232 28.7848C117.534 29.3235 114.557 31.5751 111.618 33.7885L106.272 37.8131L105.754 37.3356L105.236 36.8583L106.974 35.3239C111.425 31.3953 113.882 28.3514 115.104 25.2505C115.662 23.8346 115.788 23.1558 115.873 21.1137C115.997 18.1477 115.666 16.6155 114.32 13.9128C112.791 10.8432 109.759 8.16826 106.518 7.02986C104.241 6.2302 102.042 6.03821 100.102 6.46963C98.1876 6.89506 96.6166 7.64905 95.5845 8.63715L94.8803 9.31132L94.1588 8.49017C92.4028 6.4918 86.8864 3.61885 86.3792 4.4389C86.2874 4.58744 85.9462 5.85687 85.6209 7.2602C84.8398 10.6309 83.3544 15.0311 81.6165 19.1227C80.8396 20.9517 80.2039 22.5816 80.2037 22.7447C80.2035 22.9702 79.9777 23.0041 79.2606 22.8857C78.7421 22.7999 78.2775 22.6931 78.2285 22.6478C78.1797 22.6026 78.4142 21.7043 78.7497 20.6515C81.0399 13.4668 82.1688 5.80477 81.2099 3.95184C80.079 1.76681 76.0991 0.535068 70.2197 0.550587C66.5972 0.560342 64.6726 0.863403 62.7004 1.73511C60.3616 2.76887 60.0137 3.54857 60.0152 7.75369C60.0161 10.9827 60.4343 14.5515 61.3684 19.3007C61.6275 20.618 61.803 21.7269 61.7586 21.7651C61.7145 21.8032 60.8619 21.8877 59.8642 21.9528L58.05 22.0714L57.7946 20.4861C57.2249 16.9476 56.1948 12.1847 55.6574 10.6038C53.9631 5.6201 51.62 2.41926 48.5594 0.907743C47.0108 0.143116 46.7451 0.084361 44.528 0.0163006C42.6996 -0.0397883 41.7905 0.0417964 40.5707 0.371901ZM46.0054 5.91584C48.6675 7.27284 50.3002 11.0452 51.5761 18.7886C51.9275 20.9215 52.1977 22.6829 52.1767 22.7026C52.1554 22.7226 51.1896 22.985 50.0304 23.2863C48.8712 23.5874 47.0042 24.1611 45.8818 24.5609L43.8409 25.288L42.2661 24.0006C36.6983 19.4488 34.7807 14.8231 36.6273 10.3972C37.4801 8.35293 39.5437 6.47163 41.656 5.81208C43.083 5.3667 45.0188 5.41281 46.0054 5.91584ZM34.0005 50.5772C32.7303 51.0455 31.6529 51.9722 30.7426 53.3797C29.4124 55.4364 29.0645 56.8171 29.0645 60.0416C29.0645 62.7046 29.0942 62.8873 29.733 64.1344C30.6612 65.9474 31.8517 66.7692 33.5654 66.7796C36.0325 66.7945 37.8717 65.0355 39.1181 61.4691C39.5619 60.1997 39.6639 59.4674 39.6757 57.476C39.6912 54.8471 39.4452 53.6382 38.6604 52.4865C37.4437 50.7005 35.6544 49.9674 34.0005 50.5772ZM67.8902 58.1186C66.425 58.5818 65.7217 59.0365 64.5459 60.2811C62.4535 62.4963 61.4423 65.4388 61.6182 68.8017C61.74 71.1339 62.3395 72.7077 63.6638 74.1725C65.5944 76.3081 68.6423 76.8508 71.2871 75.5299C75.6407 73.3562 77.6213 66.71 75.3936 61.75C74.0429 58.7425 70.8325 57.1889 67.8902 58.1186ZM11.9352 83.9721C13.3496 85.0837 13.6453 89.6719 12.3841 90.9324C10.9182 92.3969 9.09852 90.7883 8.82918 87.7897C8.54942 84.6782 10.2205 82.6242 11.9352 83.9721ZM70.2197 85.3639C68.9454 86.0079 68.8462 87.5582 69.9675 89.3054C71.1041 91.077 75.6722 96.0551 76.8598 96.8167C77.9186 97.4957 78.1089 97.5427 79.3815 97.4405C80.3477 97.3629 81.4856 97.0197 83.1986 96.289C87.475 94.4649 88.5894 93.4474 87.9638 91.9378C87.6001 91.0606 86.8267 90.6846 82.7549 89.4063C80.3175 88.641 78.7394 87.9801 76.857 86.9359C75.4435 86.152 73.9466 85.4131 73.5306 85.2938C72.4849 84.9941 70.8842 85.028 70.2197 85.3639ZM30.3016 88.31C30.7602 88.7984 30.8394 89.1012 30.8389 90.3662C30.8387 91.6004 30.7136 92.1032 30.0957 93.3573C28.9853 95.6113 27.6279 96.2744 26.3591 95.1828C25.7814 94.6857 25.7368 94.5303 25.7408 93.0212C25.7446 91.5942 25.8386 91.222 26.5102 89.9772C27.6821 87.8048 29.2 87.1372 30.3016 88.31Z" fill="#111111"/>
</svg>
